#!OML:ASF F:\VICON\USERDATA\INSTALL\rory3\rory3.ASF
:FULLY-SPECIFIED
:DEGREES
619
root 1.89014 17.1232 6.28219 32.0311 33.4288 8.38513
lowerback 37.831 1.87098 2.89394
upperback 11.5904 4.14696 3.72762
thorax -5.8244 2.09 0.885552
lowerneck -15.7288 -9.59122 -17.004
upperneck 26.2688 -10.4403 7.32068
head 12.7295 -5.30754 3.93397
rclavicle -3.18055e-015 8.74653e-015
rhumerus 26.831 2.35107 -73.1181
rradius 31.5882
rwrist 25.7415
rhand -54.0977 28.3004
rfingers 7.12502
rthumb -26.5169 0.136141
lclavicle -3.18055e-015 8.74653e-015
lhumerus -24.5815 -45.6731 99.907
lradius 82.6499
lwrist -1.24481
lhand -33.2122 23.4301
lfingers 7.12502
lthumb -6.41906 53.3128
rfemur -63.4586 -22.9399 22.5772
rtibia 52.8425
rfoot -12.8286 -8.80986
rtoes 0.206284
lfemur -57.9701 -0.286864 -26.9471
ltibia 37.1097
lfoot -2.36188 -16.4612
ltoes 5.28078
620
root 1.89008 17.0694 6.26152 32.53 33.5885 8.64672
lowerback 38.199 1.71026 3.2165
upperback 11.692 4.08615 3.7141
thorax -5.80905 2.06953 0.721934
lowerneck -15.8228 -9.70419 -17.0422
upperneck 26.0832 -10.5985 7.42903
head 12.7059 -5.36339 3.94602
rclavicle 3.18055e-014 2.38542e-015
rhumerus 27.7038 1.77666 -73.062
rradius 31.1067
rwrist 26.2192
rhand -54.2226 27.9232
rfingers 7.12502
rthumb -26.6363 -0.222934
lclavicle 3.18055e-014 2.38542e-015
lhumerus -24.7757 -45.6866 99.8341
lradius 83.7153
lwrist -1.77328
lhand -33.6825 23.576
lfingers 7.12502
lthumb -6.87312 53.4445
rfemur -64.5255 -23.4054 22.7776
rtibia 53.6065
rfoot -12.9468 -8.62559
rtoes -0.285589
lfemur -58.8915 -0.570889 -27.1693
ltibia 37.8944
lfoot -2.55553 -16.4817
ltoes 5.42246
621
root 1.87944 17.0247 6.24569 32.9978 33.7108 8.83168
lowerback 38.5532 1.6472 3.42755
upperback 11.7942 4.10801 3.74353
thorax -5.79889 2.08431 0.631306
lowerneck -15.8744 -9.82045 -17.1421
upperneck 25.8451 -10.7698 7.60699
head 12.6638 -5.42354 3.99287
rclavicle -9.54166e-015 4.77083e-015
rhumerus 28.553 1.31101 -72.8698
rradius 30.7509
rwrist 26.3635
rhand -54.2398 27.4544
rfingers 7.12502
rthumb -26.6529 -0.689321
lclavicle -9.54166e-015 4.77083e-015
lhumerus -24.917 -45.803 99.7306
lradius 84.7632
lwrist -2.06265
lhand -34.3979 23.0258
lfingers 7.12502
lthumb -7.56365 52.8706
rfemur -65.5653 -23.7356 23.0413
rtibia 54.3962
rfoot -13.1456 -8.44935
rtoes -0.112854
lfemur -59.7981 -0.56429 -27.4719
ltibia 38.6331
lfoot -2.64691 -16.7698
ltoes 5.88755
622
root 1.86678 16.9764 6.23325 33.548 33.7431 9.16618
lowerback 38.941 1.63018 3.46916
upperback 11.8748 4.1243 3.73431
thorax -5.83066 2.09399 0.587479
lowerneck -15.7627 -9.93504 -17.2697
upperneck 25.4227 -10.9628 7.81846
head 12.5229 -5.49466 4.05509
rclavicle 6.36111e-015 1.03368e-014
rhumerus 29.3244 0.888366 -72.682
rradius 30.4863
rwrist 26.3838
rhand -54.2855 27.5559
rfingers 7.12502
rthumb -26.6966 -0.581169
lclavicle 6.36111e-015 1.03368e-014
lhumerus -25.0288 -45.904 99.6748
lradius 85.6449
lwrist -2.35945
lhand -35.0391 22.707
lfingers 7.12502
lthumb -8.18255 52.5286
rfemur -66.6171 -24.0304 23.1186
rtibia 55.2086
rfoot -13.3397 -8.30034
rtoes -0.0406296
lfemur -60.6541 -0.60897 -27.8846
ltibia 39.329
lfoot -2.75411 -16.9749
ltoes 6.2323
623
root 1.85335 16.9216 6.21863 34.245 33.7843 9.58109
lowerback 39.2321 1.62234 3.46165
upperback 11.931 4.13238 3.7525
thorax -5.86325 2.09803 0.602247
lowerneck -15.6959 -10.0796 -17.4368
upperneck 25.0533 -11.1643 7.98008
head 12.4155 -5.57838 4.10133
rclavicle 1.59028e-014 -6.91771e-014
rhumerus 30.0922 0.460353 -72.4604
rradius 30.1572
rwrist 26.4203
rhand -54.6127 27.8134
rfingers 7.12502
rthumb -27.0096 -0.275507
lclavicle 1.59028e-014 -6.91771e-014
lhumerus -25.1569 -45.9103 99.7429
lradius 86.3657
lwrist -2.53687
lhand -35.1268 23.4453
lfingers 7.12502
lthumb -8.26719 53.2635
rfemur -67.8149 -24.3342 23.1817
rtibia 56.0301
rfoot -13.5573 -8.1878
rtoes 0.0282008
lfemur -61.6339 -0.757541 -28.3107
ltibia 40.0175
lfoot -2.81135 -17.1301
ltoes 6.66354
624
root 1.84064 16.8696 6.20532 34.8192 33.9508 9.81307
lowerback 39.5206 1.55642 3.68906
upperback 11.9978 4.15884 3.79588
thorax -5.86728 2.11419 0.517431
lowerneck -15.7552 -10.2195 -17.4233
upperneck 24.8113 -11.3229 7.90803
head 12.3494 -5.65082 4.03436
rclavicle -2.22639e-014 -7.79236e-014
rhumerus 30.9137 -0.0808743 -72.3257
rradius 29.7656
rwrist 26.4158
rhand -55.0215 28.2363
rfingers 7.12502
rthumb -27.4007 0.208591
lclavicle -2.22639e-014 -7.79236e-014
lhumerus -25.2397 -46.0526 99.7812
lradius 87.0747
lwrist -2.54659
lhand -34.9319 24.5702
lfingers 7.12502
lthumb -8.07901 54.3958
rfemur -68.9297 -24.6156 23.4356
rtibia 56.817
rfoot -13.8163 -8.1363
rtoes 0.262846
lfemur -62.5999 -0.86157 -28.566
ltibia 40.7069
lfoot -2.90155 -17.4122
ltoes 6.75758
